<?xml version="1.0" standalone="no"?>
<!DOCTYPE svg PUBLIC "-//W3C//DTD SVG 20010904//EN"
 "http://www.w3.org/TR/2001/REC-SVG-20010904/DTD/svg10.dtd">
<svg version="1.0" xmlns="http://www.w3.org/2000/svg"
 width="300.000000pt" height="300.000000pt" viewBox="0 0 300.000000 300.000000"
 preserveAspectRatio="xMidYMid meet">
<metadata>
Created by potrace 1.10, written by Peter Selinger 2001-2011
</metadata>
<g transform="translate(0.000000,300.000000) scale(0.100000,-0.100000)"
fill="#000000" stroke="none">
<path d="M1347 2160 c-255 -54 -455 -244 -539 -510 -19 -62 -23 -96 -22 -195
0 -108 4 -130 32 -213 24 -70 32 -111 32 -165 0 -84 21 -136 71 -184 45 -42
92 -61 175 -69 38 -3 103 -18 144 -34 107 -40 198 -54 294 -46 191 14 338 79
462 201 117 117 177 224 208 377 27 131 15 275 -35 400 -12 32 -19 74 -19 121
0 86 -21 138 -73 184 -40 35 -119 63 -179 63 -22 0 -70 13 -109 30 -143 61
-284 73 -442 40z m382 -58 c46 -17 88 -35 95 -40 6 -5 43 -12 81 -14 150 -10
229 -101 210 -240 -4 -27 -3 -54 3 -61 28 -36 55 -148 59 -253 10 -194 -46
-355 -168 -488 -126 -137 -288 -215 -466 -224 -123 -6 -199 7 -308 53 -58 25
-95 34 -137 34 -59 0 -119 20 -151 49 -35 32 -51 77 -58 167 -5 60 -16 115
-35 165 -26 69 -28 86 -28 210 0 120 3 143 26 211 80 228 251 387 490 454 38
11 89 14 178 11 111 -3 135 -6 209 -34z"/>
<path d="M1420 2123 c-14 -2 -50 -11 -80 -20 l-55 -17 54 -7 c49 -7 57 -5 94
22 39 28 38 31 -13 22z"/>
<path d="M1475 2108 c-58 -31 -68 -40 -54 -49 28 -18 90 -30 102 -21 7 6 39
19 72 29 l59 20 -49 16 c-56 19 -101 21 -130 5z"/>
<path d="M1735 2055 c32 -26 45 -31 45 -16 0 5 10 7 22 3 15 -4 19 -2 13 7 -4
7 -17 10 -29 7 -11 -2 -30 2 -40 10 -34 24 -43 15 -11 -11z"/>
<path d="M1229 2049 c-19 -16 -20 -19 -6 -15 10 3 51 9 90 13 53 5 66 9 47 14
-52 15 -107 10 -131 -12z"/>
<path d="M1630 2063 c-8 -2 -39 -14 -68 -25 l-53 -21 36 -24 c25 -17 42 -22
58 -17 19 6 15 9 -28 25 -27 9 -41 18 -30 18 11 0 37 -6 57 -13 31 -11 44 -11
87 3 28 9 51 19 51 23 0 11 -56 38 -77 37 -10 0 -25 -3 -33 -6z"/>
<path d="M1157 2030 c-26 -16 -47 -32 -47 -35 0 -9 79 37 92 52 16 19 7 16
-45 -17z"/>
<path d="M1257 2024 c-6 -7 60 -74 73 -74 4 0 10 10 13 23 2 12 8 30 12 40 6
15 1 17 -42 17 -27 0 -52 -3 -56 -6z"/>
<path d="M1365 1994 c-28 -67 -15 -71 62 -17 58 40 56 53 -9 53 -34 0 -39 -4
-53 -36z"/>
<path d="M1193 2009 c-22 -6 -47 -29 -82 -77 l-51 -67 33 -3 c17 -1 61 -13 96
-25 l63 -22 24 30 c33 41 31 82 -7 133 -17 23 -34 42 -37 41 -4 0 -21 -5 -39
-10z m46 -42 c19 -23 23 -71 9 -90 -13 -17 -18 -18 -59 -6 -24 7 -48 16 -52
20 -12 10 21 57 52 74 33 18 36 18 50 2z"/>
<path d="M1445 1965 c-34 -33 -45 -52 -45 -75 0 -35 10 -38 35 -10 10 11 43
34 72 51 29 17 53 32 53 34 0 2 -16 12 -35 24 l-36 21 -44 -45z"/>
<path d="M1092 1968 c-12 -16 -42 -75 -42 -83 0 -4 16 14 35 39 19 26 35 48
35 51 0 10 -18 5 -28 -7z"/>
<path d="M1716 1971 c-3 -5 15 -21 41 -37 27 -15 58 -35 71 -45 22 -17 52 -16
52 0 0 4 -16 26 -36 49 -32 37 -40 42 -79 42 -24 0 -46 -4 -49 -9z"/>
<path d="M1633 1959 c-13 -5 -23 -10 -23 -11 0 -2 13 -15 29 -30 l28 -27 15
37 c14 35 14 37 -6 38 -12 1 -31 -2 -43 -7z"/>
<path d="M1871 1930 c18 -22 35 -40 39 -40 21 0 16 18 -12 47 -46 47 -66 42
-27 -7z"/>
<path d="M1690 1913 c-11 -31 -10 -37 11 -59 12 -13 32 -24 44 -24 28 0 87 29
80 39 -2 5 -31 24 -64 44 l-60 36 -11 -36z"/>
<path d="M991 1883 c-52 -58 -60 -77 -19 -49 12 9 29 16 38 16 9 0 22 18 31
45 9 25 13 45 9 45 -5 0 -31 -26 -59 -57z"/>
<path d="M1542 1930 c-12 -5 -43 -25 -68 -44 l-45 -35 113 -3 c67 -2 116 1
120 7 9 13 -61 85 -82 84 -8 0 -25 -4 -38 -9z"/>
<path d="M1917 1883 c-2 -5 9 -30 24 -58 32 -57 33 -56 18 15 -6 30 -16 50
-24 50 -8 0 -16 -3 -18 -7z"/>
<path d="M1870 1863 c0 -5 19 -27 42 -48 l41 -40 -25 45 c-23 40 -58 66 -58
43z"/>
<path d="M1050 1835 c-7 -8 -14 -33 -17 -56 l-6 -41 49 25 c27 14 70 31 94 38
l45 12 -40 12 c-72 21 -113 25 -125 10z"/>
<path d="M1810 1835 l-25 -13 28 -11 c16 -6 33 -11 38 -11 5 0 27 -9 49 -20
55 -28 55 -26 1 25 -53 50 -55 50 -91 30z"/>
<path d="M1974 1830 c3 -14 6 -40 6 -57 0 -18 4 -33 9 -33 12 0 6 73 -8 96
-11 17 -12 17 -7 -6z"/>
<path d="M985 1823 c-16 -9 -40 -25 -53 -36 -22 -21 -52 -101 -52 -142 0 -19
6 -16 46 22 26 24 50 43 54 43 8 0 45 118 39 124 -2 2 -17 -3 -34 -11z"/>
<path d="M1420 1833 c0 -5 15 -24 33 -41 26 -26 33 -29 33 -15 -1 22 1 23 74
23 43 0 60 -4 60 -13 0 -17 -129 -107 -152 -107 -25 0 -82 70 -69 83 9 9 17 8
32 -1 35 -22 35 -4 1 30 l-32 32 -30 -29 c-29 -28 -39 -55 -21 -55 5 0 34 -24
64 -54 l54 -54 79 56 c44 32 90 64 103 72 18 12 21 21 16 43 l-7 27 -103 0
c-57 0 -110 3 -119 6 -9 3 -16 2 -16 -3z"/>
<path d="M1329 1813 c0 -11 -3 -13 -6 -5 -5 13 -35 17 -46 5 -4 -3 1 -15 10
-26 18 -19 17 -20 -5 -8 -13 7 -25 11 -27 9 -6 -7 -102 -154 -110 -168 -4 -8
37 29 91 82 54 54 108 104 119 112 20 15 20 15 -2 16 -15 0 -23 -6 -24 -17z"/>
<path d="M1680 1800 c0 -17 3 -19 19 -10 31 16 38 11 12 -9 -23 -18 -24 -21
-13 -59 l12 -39 40 10 c22 6 40 15 40 20 0 5 -16 31 -36 58 -38 52 -74 66 -74
29z"/>
<path d="M1750 1804 c0 -3 15 -24 32 -47 18 -23 33 -43 33 -43 0 -1 32 6 70
15 l70 18 -95 31 c-98 33 -110 36 -110 26z"/>
<path d="M1118 1763 c-79 -33 -88 -39 -87 -62 0 -40 25 -170 33 -179 10 -10
31 20 71 100 18 36 44 83 59 104 14 20 23 41 20 46 -3 5 -2 7 3 6 4 -2 9 2 11
7 6 20 -25 14 -110 -22z m32 -34 c0 -15 -48 -95 -65 -109 -13 -11 -15 -5 -15
37 0 46 2 51 33 66 39 19 47 20 47 6z"/>
<path d="M1277 1696 c-25 -30 -71 -89 -102 -131 -55 -77 -55 -78 -35 -92 19
-14 28 -11 103 25 45 23 95 45 110 51 24 9 26 14 17 30 -6 11 -18 54 -28 96
l-18 75 -47 -54z m49 -60 c12 -49 1 -65 -63 -96 -77 -36 -80 -25 -16 59 51 66
69 75 79 37z"/>
<path d="M1568 1687 c-48 -34 -87 -67 -88 -73 0 -7 37 3 88 22 48 18 92 33 99
34 6 0 14 4 17 9 9 14 -5 71 -18 71 -6 0 -50 -29 -98 -63z"/>
<path d="M1888 1716 c-25 -6 -49 -14 -53 -18 -6 -5 7 -35 33 -77 2 -5 72 73
85 96 9 15 1 15 -65 -1z"/>
<path d="M2092 1709 c-10 -26 -6 -49 9 -49 14 0 23 50 11 62 -8 8 -14 5 -20
-13z"/>
<path d="M1350 1709 c0 -9 7 -38 16 -65 9 -27 18 -55 20 -63 4 -11 8 -11 23 3
13 12 24 14 42 8 23 -9 22 -10 -14 -23 -20 -7 -37 -17 -37 -21 0 -13 39 -86
82 -155 l39 -61 39 15 c22 9 40 20 40 25 0 36 -128 238 -147 231 -8 -3 -11 0
-8 9 3 8 -16 34 -45 63 -30 30 -50 43 -50 34z m148 -196 c38 -55 64 -115 53
-126 -5 -5 -16 -7 -24 -4 -20 8 -90 134 -82 147 11 18 33 11 53 -17z"/>
<path d="M995 1688 c-3 -13 -9 -51 -13 -85 l-8 -61 30 -5 c17 -3 32 -3 34 -2
2 2 -1 20 -7 42 -6 21 -11 59 -11 86 0 49 -16 64 -25 25z"/>
<path d="M1923 1655 l-43 -55 17 -41 c15 -39 17 -41 30 -23 19 27 45 119 41
149 -3 23 -6 21 -45 -30z"/>
<path d="M1768 1686 c-20 -6 -39 -14 -43 -18 -7 -7 41 -102 60 -118 8 -7 22 1
44 24 l33 34 -29 44 c-28 44 -28 44 -65 34z m41 -54 c6 -11 6 -23 0 -33 -8
-12 -12 -11 -24 5 -8 11 -15 26 -15 33 0 19 28 16 39 -5z"/>
<path d="M927 1642 c-42 -43 -47 -52 -47 -94 l0 -45 40 19 c34 17 40 25 40 52
0 17 5 48 11 69 6 22 9 41 7 43 -2 2 -25 -18 -51 -44z"/>
<path d="M2114 1656 c-4 -11 0 -24 10 -34 15 -15 16 -15 16 3 0 11 -4 27 -10
35 -8 12 -10 12 -16 -4z"/>
<path d="M1590 1628 c-47 -17 -86 -32 -88 -33 -2 -2 22 -45 52 -96 31 -50 56
-98 56 -106 0 -23 13 -15 94 60 l78 72 -36 55 c-20 30 -36 60 -36 67 0 19 -25
15 -120 -19z m119 -44 c12 -19 21 -44 21 -54 0 -22 -78 -92 -99 -88 -19 4 -84
115 -78 133 6 14 79 43 114 44 14 1 28 -11 42 -35z"/>
<path d="M2066 1644 c-3 -8 2 -30 11 -47 9 -18 24 -57 34 -87 24 -75 26 -22 2
61 -13 42 -22 58 -32 54 -11 -4 -11 -2 -2 9 7 8 8 17 3 20 -6 3 -13 -1 -16
-10z"/>
<path d="M2122 1580 c14 -44 28 -61 28 -33 0 11 -9 31 -20 44 l-20 24 12 -35z"/>
<path d="M2043 1588 c-12 -16 -4 -188 8 -188 18 0 59 32 59 46 0 18 -40 136
-50 147 -4 4 -11 2 -17 -5z"/>
<path d="M1832 1557 l-32 -33 22 -21 c20 -20 23 -21 50 -7 33 17 33 18 10 62
l-18 32 -32 -33z"/>
<path d="M855 1548 c-2 -7 0 -29 4 -48 l9 -35 1 48 c1 45 -5 60 -14 35z"/>
<path d="M1297 1467 l-79 -72 20 -25 c10 -14 29 -44 41 -67 12 -24 25 -43 29
-43 17 0 192 65 192 72 0 4 -13 26 -29 50 -16 24 -42 69 -57 101 -16 31 -31
57 -34 57 -3 0 -40 -33 -83 -73z m118 -43 c20 -36 34 -71 32 -78 -6 -14 -88
-46 -118 -46 -19 0 -59 61 -59 90 0 15 89 100 105 100 2 0 20 -30 40 -66z"/>
<path d="M1978 1485 c-40 -61 -36 -81 17 -87 30 -3 30 -3 33 54 5 90 -7 98
-50 33z"/>
<path d="M971 1498 c0 -18 4 -51 7 -74 l7 -41 36 57 c20 32 34 62 30 67 -3 6
-23 13 -43 17 -38 7 -38 7 -37 -26z"/>
<path d="M1252 1487 c-83 -42 -83 -43 -63 -61 21 -19 22 -18 78 34 32 30 62
57 68 62 16 14 2 8 -83 -35z"/>
<path d="M910 1500 l-25 -19 24 -69 c13 -38 27 -76 32 -83 15 -23 31 10 24 51
-2 19 -5 59 -5 88 0 58 -9 64 -50 32z"/>
<path d="M2150 1483 c0 -21 5 -45 10 -53 7 -11 10 -2 10 32 0 26 -4 50 -10 53
-6 4 -10 -9 -10 -32z"/>
<path d="M1720 1448 l-65 -60 87 43 c83 41 86 44 71 61 -9 10 -19 18 -22 18
-3 -1 -35 -28 -71 -62z"/>
<path d="M835 1478 c-2 -13 -1 -39 4 -58 8 -33 9 -31 10 23 1 59 -5 74 -14 35z"/>
<path d="M1876 1485 c-10 -8 -15 -19 -10 -26 5 -9 2 -10 -9 -6 -9 3 -49 -9
-89 -27 -40 -19 -90 -41 -111 -50 -37 -15 -38 -16 -24 -43 8 -15 20 -53 27
-83 l13 -54 62 67 c51 54 125 154 169 225 10 16 -4 15 -28 -3z m-96 -104 c0
-5 -21 -32 -47 -61 -48 -54 -63 -54 -63 1 0 20 9 30 43 46 46 24 67 28 67 14z"/>
<path d="M1100 1450 c-6 -12 -9 -24 -7 -27 8 -7 47 21 44 31 -6 19 -26 17 -37
-4z"/>
<path d="M871 1435 c0 -42 33 -140 46 -138 6 1 9 -7 6 -20 -5 -17 -3 -20 7
-10 9 9 10 18 2 40 -57 149 -61 158 -61 128z"/>
<path d="M2132 1430 c0 -14 4 -36 8 -50 8 -24 8 -24 8 5 0 17 -3 39 -8 50 -8
18 -9 18 -8 -5z"/>
<path d="M1127 1424 c-27 -14 -27 -15 -12 -51 9 -20 17 -38 19 -40 1 -1 17 12
34 30 l32 33 -22 21 c-21 20 -25 20 -51 7z"/>
<path d="M1922 1408 c-6 -7 -22 -39 -36 -72 -28 -64 -92 -173 -114 -196 -10
-9 -11 -15 -3 -18 16 -5 178 58 192 75 9 10 8 35 -4 106 -10 51 -18 98 -19
105 -1 6 -2 12 -3 12 -2 0 -7 -6 -13 -12z m8 -143 c0 -40 -4 -47 -32 -65 -52
-32 -61 -26 -37 23 51 99 69 110 69 42z"/>
<path d="M2079 1398 c-34 -17 -37 -22 -42 -76 -3 -31 -9 -66 -13 -77 -6 -15 3
-11 32 15 66 58 74 73 66 117 l-7 40 -36 -19z"/>
<path d="M1057 1363 c-17 -45 -33 -163 -20 -148 5 6 27 31 48 58 l38 47 -18
40 c-10 22 -21 40 -25 40 -5 0 -14 -17 -23 -37z"/>
<path d="M858 1380 c-3 -8 -1 -23 4 -33 5 -9 6 -22 3 -27 -4 -6 -3 -24 0 -41
6 -25 9 -28 21 -18 13 10 12 14 -1 29 -17 18 -20 34 -5 25 6 -3 6 5 0 22 -4
15 -10 35 -13 43 -3 13 -4 13 -9 0z"/>
<path d="M1965 1372 c4 -9 9 -50 12 -90 8 -95 24 -89 40 13 7 44 11 80 10 81
-1 0 -17 4 -36 8 -29 5 -32 4 -26 -12z"/>
<path d="M1174 1349 l-31 -31 24 -44 c27 -48 29 -49 84 -33 l38 12 -23 42
c-35 62 -50 85 -56 85 -3 0 -19 -14 -36 -31z m66 -70 c0 -18 -39 -8 -45 11
-11 33 6 46 27 21 10 -13 18 -27 18 -32z"/>
<path d="M1590 1335 c-7 -9 -20 -13 -28 -10 -7 3 -19 2 -25 -2 -7 -4 -16 -8
-22 -10 -49 -11 -200 -73 -199 -82 2 -28 5 -37 13 -50 9 -15 46 7 163 96 57
43 75 53 62 32 -3 -6 18 -35 47 -65 29 -30 49 -54 44 -54 -5 0 -32 22 -60 50
l-51 50 -86 -63 c-47 -34 -93 -66 -102 -72 -10 -7 -13 -19 -10 -36 6 -26 8
-27 105 -34 77 -5 103 -3 118 7 19 14 19 15 -15 53 l-34 39 6 -32 7 -32 -72 0
c-52 0 -71 4 -71 13 0 18 125 107 149 107 22 0 64 -47 55 -61 -3 -5 -14 -4
-25 2 -31 16 -31 8 1 -31 l28 -35 27 25 c44 41 46 51 22 134 -12 42 -25 76
-28 76 -4 0 -12 -7 -19 -15z"/>
<path d="M1778 1250 c-74 -74 -98 -104 -98 -124 0 -27 14 -33 39 -17 12 8 11
13 -10 31 l-24 22 27 -16 c15 -9 29 -16 32 -16 5 0 98 144 120 188 9 17 15 32
14 31 -2 0 -47 -45 -100 -99z"/>
<path d="M1082 1248 c-23 -28 -41 -52 -39 -54 1 -2 33 4 70 12 l67 16 -23 39
c-12 21 -24 39 -27 39 -3 0 -24 -23 -48 -52z"/>
<path d="M2071 1249 c-51 -45 -91 -115 -91 -157 0 -17 67 17 97 50 18 18 59
146 50 154 -1 1 -27 -20 -56 -47z"/>
<path d="M885 1239 c-5 -13 -1 -27 8 -36 13 -13 15 -12 21 12 11 43 -16 65
-29 24z"/>
<path d="M1250 1227 c-19 -6 -37 -12 -39 -14 -4 -3 49 -83 55 -83 2 0 15 5 29
12 19 9 24 16 19 32 -11 36 -23 66 -26 65 -2 -1 -19 -6 -38 -12z"/>
<path d="M1117 1195 c-32 -7 -60 -15 -62 -17 -2 -2 39 -19 91 -37 52 -19 97
-31 100 -28 6 6 -57 98 -65 96 -3 -1 -32 -7 -64 -14z"/>
<path d="M1007 1139 c2 -23 8 -48 14 -57 8 -13 9 -7 5 23 -3 22 -6 48 -6 58 0
9 -4 17 -8 17 -5 0 -7 -18 -5 -41z"/>
<path d="M1958 1175 c-4 -4 -43 -22 -88 -40 l-81 -32 45 -12 c71 -17 114 -14
126 9 12 22 10 87 -2 75z"/>
<path d="M1103 1113 l46 -47 33 16 c30 14 31 17 13 23 -11 4 -47 18 -80 31
l-59 23 47 -46z"/>
<path d="M1036 1115 c9 -52 21 -85 32 -85 20 0 20 15 1 52 -27 53 -19 59 10 8
12 -22 29 -40 37 -40 23 0 17 13 -26 55 -22 21 -40 35 -40 30 0 -6 -5 -3 -11
5 -7 11 -8 4 -3 -25z"/>
<path d="M1298 1129 c-24 -13 -23 -29 2 -29 13 0 20 7 20 20 0 23 1 23 -22 9z"/>
<path d="M1633 1121 c-25 -21 -21 -31 14 -31 18 0 23 5 23 25 0 30 -7 31 -37
6z"/>
<path d="M2021 1084 c-31 -17 -49 -35 -62 -64 -10 -22 -15 -40 -11 -40 4 0 26
19 48 43 45 48 79 88 73 86 -2 -1 -24 -12 -48 -25z"/>
<path d="M1207 1078 l-38 -19 23 -17 c13 -10 42 -30 66 -45 l42 -27 10 25 c15
38 13 49 -12 72 -35 30 -50 32 -91 11z"/>
<path d="M1716 1069 c-23 -38 -16 -63 29 -117 47 -54 35 -54 -23 -1 l-45 42
-18 -48 c-10 -27 -16 -51 -13 -54 9 -9 166 18 188 33 12 7 41 41 64 75 l43 61
-33 0 c-18 1 -58 9 -88 20 -74 26 -83 25 -104 -11z m105 -20 c50 -17 54 -24
30 -58 -40 -56 -85 -50 -97 14 -10 55 4 65 67 44z"/>
<path d="M1340 1063 c0 -10 16 -34 35 -53 l34 -33 38 26 c21 15 49 36 63 47
l25 20 -75 0 c-41 0 -85 3 -97 6 -18 5 -23 2 -23 -13z"/>
<path d="M1545 1054 c-55 -37 -67 -50 -27 -29 60 30 45 8 -17 -27 -33 -18 -61
-35 -61 -38 0 -3 16 -15 36 -28 l36 -23 44 45 c44 46 61 83 50 111 -7 21 -15
19 -61 -11z"/>
<path d="M1917 999 c-21 -32 -39 -62 -40 -66 0 -4 -20 -20 -44 -35 -53 -34
-56 -45 -5 -19 37 19 73 51 57 51 -4 0 4 9 17 20 22 17 65 98 56 105 -2 1 -20
-24 -41 -56z"/>
<path d="M1131 1041 c-11 -7 -6 -18 24 -55 36 -45 40 -47 83 -44 25 2 47 9 50
16 2 6 -2 12 -8 12 -7 0 -39 18 -72 40 -33 22 -61 40 -62 40 0 0 -7 -4 -15 -9z"/>
<path d="M1079 1028 c-5 -22 -6 -50 -2 -40 4 10 12 7 32 -11 14 -13 35 -27 45
-31 14 -5 10 5 -16 36 -30 36 -56 57 -59 46z"/>
<path d="M1319 991 l-16 -38 36 4 c50 6 55 15 24 45 l-28 27 -16 -38z"/>
<path d="M1578 946 c-51 -40 -55 -45 -35 -50 49 -13 76 -7 90 22 43 84 28 92
-55 28z"/>
<path d="M1396 942 c-3 -5 17 -16 44 -24 28 -9 50 -15 50 -13 0 6 -67 45 -78
45 -6 0 -13 -4 -16 -8z"/>
<path d="M1313 911 c-57 -23 -60 -27 -23 -46 35 -18 75 -15 142 12 l39 16 -53
18 c-62 21 -52 21 -105 0z"/>
<path d="M1225 880 c-3 -5 -13 -6 -22 -3 -11 4 -14 3 -9 -6 5 -7 15 -10 23 -7
8 3 24 1 35 -5 29 -16 33 -4 4 15 -14 9 -27 12 -31 6z"/>
<path d="M1475 878 c-11 -7 -44 -19 -75 -29 l-55 -17 54 -16 c30 -9 64 -16 75
-16 26 0 101 34 110 49 13 21 -80 45 -109 29z"/>
<path d="M1690 876 c-73 -12 -74 -12 -35 -19 65 -11 91 -8 116 13 27 22 27 22
-81 6z"/>
<path d="M1586 831 c-11 -12 -25 -21 -33 -21 -7 0 -13 -4 -13 -8 0 -12 103 5
143 22 32 14 32 14 6 15 -15 1 -40 4 -55 7 -22 4 -34 0 -48 -15z"/>
</g>
</svg>
